HIERARCHY
ROOT Hips
{
	OFFSET 0.00000 0.00000 0.00000
	CHANNELS 6 Xposition Yposition Zposition Zrotation Yrotation Xrotation 
	JOINT LHipJoint
	{
		OFFSET 0 0 0
		CHANNELS 3 Zrotation Yrotation Xrotation
		JOINT LeftUpLeg
		{
			OFFSET 1.62964 -1.40469 0.78906
			CHANNELS 3 Zrotation Yrotation Xrotation
			JOINT LeftLeg
			{
				OFFSET 2.29640 -6.30932 0.00000
				CHANNELS 3 Zrotation Yrotation Xrotation
				JOINT LeftFoot
				{
					OFFSET 2.29451 -6.30412 0.00000
					CHANNELS 3 Zrotation Yrotation Xrotation
					JOINT LeftToeBase
					{
						OFFSET 0.03611 -0.09921 1.56387
						CHANNELS 3 Zrotation Yrotation Xrotation
						End Site
						{
							OFFSET 0.00000 -0.00000 0.80291
						}
					}
				}
			}
		}
	}
	JOINT RHipJoint
	{
		OFFSET 0 0 0
		CHANNELS 3 Zrotation Yrotation Xrotation
		JOINT RightUpLeg
		{
			OFFSET -1.73712 -1.40469 0.78906
			CHANNELS 3 Zrotation Yrotation Xrotation
			JOINT RightLeg
			{
				OFFSET -2.28137 -6.26801 0.00000
				CHANNELS 3 Zrotation Yrotation Xrotation
				JOINT RightFoot
				{
					OFFSET -2.28681 -6.28298 0.00000
					CHANNELS 3 Zrotation Yrotation Xrotation
					JOINT RightToeBase
					{
						OFFSET -0.15927 -0.43759 1.61103
						CHANNELS 3 Zrotation Yrotation Xrotation
						End Site
						{
							OFFSET -0.00000 -0.00000 0.84630
						}
					}
				}
			}
		}
	}
	JOINT LowerBack
	{
		OFFSET 0 0 0
		CHANNELS 3 Zrotation Yrotation Xrotation
		JOINT Spine
		{
			OFFSET -0.04227 2.04338 -0.00225
			CHANNELS 3 Zrotation Yrotation Xrotation
			JOINT Spine1
			{
				OFFSET -0.02148 2.04482 -0.04273
				CHANNELS 3 Zrotation Yrotation Xrotation
				JOINT Neck
				{
					OFFSET 0 0 0
					CHANNELS 3 Zrotation Yrotation Xrotation
					JOINT Neck1
					{
						OFFSET 0.09180 1.44629 0.19359
						CHANNELS 3 Zrotation Yrotation Xrotation
						JOINT Head
						{
							OFFSET 0.00887 1.40645 0.14750
							CHANNELS 3 Zrotation Yrotation Xrotation
							End Site
							{
								OFFSET -0.00669 1.50671 0.03707
							}
						}
					}
				}
				JOINT LeftShoulder
				{
					OFFSET 0 0 0
					CHANNELS 3 Zrotation Yrotation Xrotation
					JOINT LeftArm
					{
						OFFSET 2.17674 1.86763 -0.06520
						CHANNELS 3 Zrotation Yrotation Xrotation
						JOINT LeftForeArm
						{
							OFFSET 4.65776 -0.00000 0.00000
							CHANNELS 3 Zrotation Yrotation Xrotation
							JOINT LeftHand
							{
								OFFSET 3.55539 -0.00000 0.00000
								CHANNELS 3 Zrotation Yrotation Xrotation
								JOINT LeftFingerBase
								{
									OFFSET 0 0 0
									CHANNELS 3 Zrotation Yrotation Xrotation
									JOINT LeftHandIndex1
									{
										OFFSET 0.70726 -0.00000 0.00000
										CHANNELS 3 Zrotation Yrotation Xrotation
										End Site
										{
											OFFSET 0.57022 -0.00000 0.00000
										}
									}
								}
								JOINT LThumb
								{
									OFFSET 0 0 0
									CHANNELS 3 Zrotation Yrotation Xrotation
									End Site
									{
										OFFSET 0.57892 -0.00000 0.57892
									}
								}
							}
						}
					}
				}
				JOINT RightShoulder
				{
					OFFSET 0 0 0
					CHANNELS 3 Zrotation Yrotation Xrotation
					JOINT RightArm
					{
						OFFSET -2.80694 1.55459 -0.32496
						CHANNELS 3 Zrotation Yrotation Xrotation
						JOINT RightForeArm
						{
							OFFSET -4.71925 -0.00000 -0.00000
							CHANNELS 3 Zrotation Yrotation Xrotation
							JOINT RightHand
							{
								OFFSET -3.56990 -0.00000 0.00000
								CHANNELS 3 Zrotation Yrotation Xrotation
								JOINT RightFingerBase
								{
									OFFSET 0 0 0
									CHANNELS 3 Zrotation Yrotation Xrotation
									JOINT RightHandIndex1
									{
										OFFSET -0.50776 -0.00000 0.00000
										CHANNELS 3 Zrotation Yrotation Xrotation
										End Site
										{
											OFFSET -0.40937 -0.00000 0.00000
										}
									}
								}
								JOINT RThumb
								{
									OFFSET 0 0 0
									CHANNELS 3 Zrotation Yrotation Xrotation
									End Site
									{
										OFFSET -0.41562 -0.00000 0.41562
									}
								}
							}
						}
					}
				}
			}
		}
	}
}
MOTION
Frames: 11
Frame Time: .0083333
9.3028 15.7447 32.0630 177.0600 -2.0533 -144.5030 0.0000 0.0000 0.0000 -10.7346 -23.5237 -51.6316 5.0854 13.4793 41.1904 1.5056 -8.7279 -21.9751 4.5023 -12.8004 -38.6259 0.0000 0.0000 0.0000 8.6086 22.8983 -49.5407 -4.5067 -12.8058 38.6458 -3.5085 -0.0780 -35.5939 -3.0570 10.7868 -31.5642 -8.2142 -0.8540 1.3057 -0.1109 -1.2594 1.5833 4.4935 -0.7506 1.0805 -0.8386 -2.2258 -1.4325 4.6279 -4.3869 -21.9895 1.9387 -3.3436 -6.3083 -0.0000 -0.0000 0.0000 -71.2032 20.3125 41.5283 18.8401 -29.2195 -4.9525 -0.0000 0.0000 -4.8885 23.2332 -9.9888 -4.2585 -7.1250 0.0000 -0.0000 -2.6768 19.1360 1.6532 -0.0000 -0.0000 0.0000 87.6777 -18.0917 -1.8810 -10.7000 17.8269 -1.6829 0.0000 0.0000 9.6514 -11.1291 -51.6016 8.7644 7.1250 -0.0000 -0.0000 62.1412 -74.9219 -47.6343
9.3188 15.6912 32.0778 177.4900 -2.4733 -143.7120 0.0000 0.0000 0.0000 -9.4618 -23.5801 -53.6561 5.4696 13.8939 42.8139 1.5119 -9.3582 -22.0519 4.0552 -12.2336 -36.5633 0.0000 0.0000 0.0000 9.0916 22.4353 -51.4623 -4.7839 -13.1362 39.8805 -3.5718 0.4258 -35.7714 -3.1593 10.9486 -32.1068 -7.5862 -0.9234 1.9556 0.0685 -1.4022 1.4099 4.3435 -0.7865 0.5429 -0.7194 -2.3483 -1.5869 4.5964 -4.5807 -22.0112 1.9151 -3.4562 -6.2877 0.0000 0.0000 0.0000 -71.2668 20.7636 41.6066 18.7709 -29.1330 -4.9188 -0.0000 0.0000 -4.8215 23.2234 -10.0256 -4.2720 -7.1250 0.0000 -0.0000 -2.6851 19.0971 1.6607 0.0000 0.0000 0.0000 87.7612 -18.3241 -2.5459 -10.5773 17.6374 -1.6456 0.0000 0.0000 10.2919 -11.0904 -51.8632 8.7646 7.1250 -0.0000 -0.0000 63.0811 -75.0051 -48.5565
9.3303 15.6500 32.0906 178.6760 -4.4123 -141.2760 0.0000 0.0000 0.0000 -5.7437 -24.3436 -58.0792 6.0070 14.4351 45.0098 1.5421 -9.8424 -22.3008 4.0894 -12.2784 -36.7242 0.0000 0.0000 0.0000 9.9868 22.7309 -54.7174 -5.0479 -13.4375 41.0291 -3.6802 -0.0236 -36.4499 -3.1256 10.8956 -31.9287 -5.3428 -1.3613 0.8307 0.7314 -1.8574 0.8618 3.7510 -0.9712 0.6154 -0.5818 -2.4338 -1.5196 4.5024 -4.7706 -22.4335 1.8888 -3.5888 -6.4372 0.0000 -0.0000 0.0000 -71.4804 21.0018 41.5681 18.6817 -29.0212 -4.8754 -0.0000 0.0000 -4.6012 23.3052 -9.8902 -4.2316 -7.1250 0.0000 -0.0000 -2.6221 19.2367 1.6135 0.0000 -0.0000 0.0000 87.8103 -18.3458 -3.4903 -10.4312 17.4113 -1.6016 0.0000 0.0000 11.1053 -10.9835 -52.0232 8.6980 7.1250 -0.0000 -0.0000 63.7058 -75.0223 -49.1317
9.3149 15.6420 32.0053 183.3770 -11.9446 -135.1200 0.0000 0.0000 0.0000 7.0531 -25.2725 -68.7637 6.8411 15.1966 48.2706 1.5236 -10.7743 -22.2549 4.0398 -12.2131 -36.4902 0.0000 0.0000 0.0000 16.5720 22.5104 -61.2675 -5.0072 -13.3919 40.8539 -3.8107 -0.0024 -37.0937 -3.1786 10.9788 -32.2083 3.9422 -2.0307 -5.5903 3.1396 -3.1383 -0.7512 0.7899 -1.5904 2.3271 -1.1421 -2.2873 -1.5754 5.1375 -4.5354 -22.7998 2.1882 -3.5148 -6.5202 0.0000 0.0000 0.0000 -71.7176 21.3603 41.5768 18.6315 -28.9582 -4.8511 -0.0000 0.0000 -4.5121 23.4203 -9.9775 -4.2920 -7.1250 0.0000 -0.0000 -2.5435 19.1327 1.5709 0.0000 0.0000 0.0000 87.8382 -18.6114 -3.8632 -10.3736 17.3218 -1.5844 0.0000 0.0000 11.3869 -11.3744 -52.1524 9.0262 7.1250 -0.0000 -0.0000 63.9607 -75.2167 -49.5689
9.2662 15.4090 31.9983 187.5640 -22.8646 -117.6500 0.0000 0.0000 0.0000 28.7850 -19.7890 -94.6409 8.3554 16.3745 53.8328 1.6440 -10.0854 -23.0345 3.7569 -11.8297 -35.1321 0.0000 0.0000 0.0000 20.7917 26.0843 -82.3265 -5.3202 -13.7356 42.1883 -3.9313 1.4443 -37.2936 -3.3420 11.2292 -33.0568 16.3378 1.4051 -26.3793 5.8414 -4.8331 -4.8338 -4.3264 -2.5990 8.5235 -1.3440 -2.1909 -2.0382 5.4378 -4.3743 -22.6280 2.2940 -3.4486 -6.3772 -0.0000 0.0000 0.0000 -71.5596 21.6499 41.7656 18.6103 -28.9316 -4.8409 -0.0000 0.0000 -4.7101 23.3038 -10.1411 -4.3372 -7.1250 0.0000 -0.0000 -2.6323 18.9655 1.6356 -0.0000 0.0000 0.0000 88.2141 -18.6319 -4.4327 -10.2451 17.1220 -1.5463 0.0000 0.0000 12.0870 -11.7277 -52.2799 9.3252 7.1250 -0.0000 -0.0000 64.2422 -75.3956 -50.0136
9.2778 15.2167 32.0677 188.4530 -24.2066 -109.1260 0.0000 0.0000 0.0000 33.9446 -13.7697 -104.6080 9.1120 16.8793 56.4767 1.8306 -8.6414 -24.2559 3.5950 -11.6010 -34.3346 0.0000 0.0000 0.0000 17.9536 29.6195 -93.8415 -5.9247 -14.3549 44.6786 -4.0056 2.6748 -37.3640 -3.2238 11.0488 -32.4446 18.0125 4.4131 -35.3138 5.7499 -4.4617 -5.5554 -4.8809 -2.6431 10.6253 -1.5827 -1.8940 -2.5219 5.6691 -3.9966 -22.7779 2.3889 -3.2973 -6.3452 -0.0000 0.0000 0.0000 -71.6411 21.6425 41.9542 18.4360 -28.7119 -4.7569 -0.0000 0.0000 -4.6531 23.1677 -10.3126 -4.3808 -7.1250 0.0000 -0.0000 -2.7352 18.7918 1.7102 -0.0000 0.0000 0.0000 88.3883 -18.4209 -5.3326 -10.0688 16.8471 -1.4948 0.0000 0.0000 12.8587 -11.6437 -52.4412 9.2776 7.1250 -0.0000 -0.0000 64.8765 -75.4177 -50.6083
9.2827 15.1144 32.0684 188.6220 -24.4281 -107.0590 0.0000 0.0000 0.0000 34.9753 -12.1926 -107.1937 9.5383 17.1419 57.9337 1.9056 -8.2762 -24.7603 3.5788 -11.5777 -34.2539 0.0000 0.0000 0.0000 16.9785 30.4131 -97.0435 -6.2685 -14.6836 46.0499 -4.0836 3.1791 -37.6330 -3.1122 10.8745 -31.8578 18.3952 5.1635 -36.7469 5.6954 -4.1922 -5.7496 -5.0219 -2.5821 10.9425 -1.1734 -2.4772 -2.0420 5.4038 -4.7981 -22.8686 2.2822 -3.6877 -6.4459 0.0000 -0.0000 0.0000 -71.6899 21.6922 42.2266 18.1961 -28.4076 -4.6422 -0.0000 0.0000 -4.4883 23.4604 -10.6073 -4.5675 -7.1250 0.0000 -0.0000 -2.5398 18.4477 1.6072 0.0000 -0.0000 0.0000 88.5568 -18.4436 -5.7627 -9.9840 16.7146 -1.4704 0.0000 0.0000 12.9510 -11.5743 -52.4941 9.2281 7.1250 -0.0000 -0.0000 65.1059 -75.4087 -50.8055
9.2869 15.0180 32.0640 188.7310 -24.5066 -105.6640 0.0000 0.0000 0.0000 35.5972 -11.0991 -109.1414 9.9849 17.4013 59.4377 1.9820 -7.7551 -25.2796 3.6921 -11.7389 -34.8146 0.0000 0.0000 0.0000 16.6761 30.8383 -99.4114 -6.6550 -15.0343 47.5570 -4.2161 4.1062 -38.0833 -3.0706 10.8085 -31.6368 18.6996 5.6352 -37.2846 5.6549 -3.9528 -5.9590 -5.1068 -2.5407 10.9081 -1.2488 -2.0439 -2.2796 5.4429 -4.2580 -23.1642 2.2921 -3.4600 -6.5165 0.0000 -0.0000 0.0000 -71.8593 21.7897 42.3778 17.9635 -28.1104 -4.5320 -0.0000 0.0000 -4.3802 23.8809 -10.8903 -4.7815 -7.1250 0.0000 -0.0000 -2.2557 18.1030 1.4443 0.0000 -0.0000 0.0000 88.6349 -18.5148 -6.0615 -9.8911 16.5690 -1.4437 0.0000 0.0000 12.9639 -11.4798 -52.5297 9.1563 7.1250 -0.0000 -0.0000 65.2826 -75.3842 -50.9387
9.2987 14.9214 32.0500 188.8770 -24.7834 -104.7840 0.0000 0.0000 0.0000 36.1725 -10.2638 -110.6404 10.4459 17.6531 60.9684 2.0514 -7.8213 -25.7306 3.3953 -11.3091 -33.3295 0.0000 0.0000 0.0000 16.0441 31.3164 -101.1344 -6.9908 -15.3241 48.8393 -4.3582 4.4773 -38.6859 -2.9126 10.5522 -30.7840 19.1302 6.0051 -37.4683 5.6276 -3.7636 -6.0321 -5.2534 -2.4825 10.8822 -0.9443 -2.3746 -2.0250 5.2744 -4.7068 -23.1845 2.2125 -3.6802 -6.5645 -0.0000 0.0000 0.0000 -71.9872 21.6783 42.3003 17.6617 -27.7218 -4.3907 -0.0000 0.0000 -4.1435 23.8938 -11.0133 -4.8375 -7.1250 0.0000 -0.0000 -2.2523 17.9684 1.4488 -0.0000 0.0000 0.0000 88.9326 -18.3786 -6.8669 -9.7651 16.3713 -1.4080 0.0000 0.0000 13.5442 -11.3793 -52.6207 9.0862 7.1250 -0.0000 -0.0000 65.6665 -75.3752 -51.2762
9.3043 14.8229 32.0387 188.8620 -24.7759 -103.8390 0.0000 0.0000 0.0000 36.4158 -9.5758 -112.1871 10.9243 17.8978 62.5355 2.1327 -7.8731 -26.2511 3.1423 -10.9220 -32.0173 0.0000 0.0000 0.0000 15.0381 31.6287 -102.9847 -7.3438 -15.6147 50.1630 -4.4855 4.8484 -39.2133 -2.7269 10.2393 -29.7550 19.3776 6.3618 -37.7239 5.4495 -3.4921 -6.0618 -5.4480 -2.3677 10.9508 -1.0250 -2.1240 -2.1759 5.3331 -4.4042 -23.4848 2.2410 -3.5641 -6.6426 0.0000 -0.0000 0.0000 -72.0343 21.3839 42.2434 17.3519 -27.3193 -4.2476 -0.0000 0.0000 -3.7339 23.2683 -10.1448 -4.3314 -7.1250 0.0000 -0.0000 -2.6576 18.9644 1.6515 0.0000 -0.0000 0.0000 89.3400 -18.1098 -7.7392 -9.6742 16.2283 -1.3825 0.0000 0.0000 14.3674 -11.1213 -52.4087 8.8535 7.1250 -0.0000 -0.0000 65.0167 -75.2077 -50.5078
9.3104 14.7271 32.0273 188.8770 -24.5715 -103.1720 0.0000 0.0000 0.0000 36.4172 -9.0400 -113.4482 11.4105 18.1302 64.1075 2.2198 -7.6315 -26.8136 3.1118 -10.8739 -31.8557 0.0000 0.0000 0.0000 14.3840 31.8509 -104.3937 -7.6705 -15.8715 51.3670 -4.5842 5.3964 -39.5777 -2.5612 9.9483 -28.8094 19.4872 6.5464 -37.5474 5.3265 -3.2371 -6.1316 -5.5266 -2.2709 10.8378 -1.0412 -2.1379 -2.1712 5.1735 -4.4526 -23.5234 2.1962 -3.5762 -6.6589 0.0000 -0.0000 0.0000 -72.1973 21.1561 42.1300 17.1274 -27.0254 -4.1450 -0.0000 0.0000 -3.4773 23.5689 -11.2032 -4.8446 -7.1250 0.0000 -0.0000 -2.4892 17.7932 1.6110 0.0000 -0.0000 0.0000 89.4938 -17.7455 -8.4369 -9.4865 15.9323 -1.3305 0.0000 0.0000 15.2623 -10.9079 -52.1448 8.6517 7.1250 -0.0000 -0.0000 64.1785 -75.0366 -49.5697
